<mxfile host="app.diagrams.net" modified="2024-04-01T02:15:40.578Z" agent="Mozilla/5.0 (Windows NT 10.0; Win64; x64) AppleWebKit/537.36 (KHTML, like Gecko) Chrome/123.0.0.0 Safari/537.36" etag="q3sbwwt577VW0vQVxbxo" version="24.2.1" type="google">
  <diagram name="페이지-1" id="ewcLrLdahBWsl0gD86ct">
    <mxGraphModel dx="1026" dy="1111" grid="1" gridSize="10" guides="1" tooltips="1" connect="1" arrows="1" fold="1" page="1" pageScale="1" pageWidth="827" pageHeight="1169" math="0" shadow="0">
      <root>
        <mxCell id="0" />
        <mxCell id="1" parent="0" />
        <mxCell id="hCge_hbesWVKOA7EXtks-1" value="리스트 페이지&lt;div&gt;시작&lt;/div&gt;" style="strokeWidth=2;html=1;shape=mxgraph.flowchart.terminator;whiteSpace=wrap;" vertex="1" parent="1">
          <mxGeometry x="140" y="20" width="100" height="60" as="geometry" />
        </mxCell>
        <mxCell id="hCge_hbesWVKOA7EXtks-2" value="DB 접속" style="rounded=0;whiteSpace=wrap;html=1;" vertex="1" parent="1">
          <mxGeometry x="130" y="120" width="120" height="60" as="geometry" />
        </mxCell>
        <mxCell id="hCge_hbesWVKOA7EXtks-3" value="" style="endArrow=classic;html=1;rounded=0;exitX=0.5;exitY=1;exitDx=0;exitDy=0;exitPerimeter=0;entryX=0.5;entryY=0;entryDx=0;entryDy=0;" edge="1" parent="1" source="hCge_hbesWVKOA7EXtks-1" target="hCge_hbesWVKOA7EXtks-2">
          <mxGeometry width="50" height="50" relative="1" as="geometry">
            <mxPoint x="186" y="90" as="sourcePoint" />
            <mxPoint x="240" y="135" as="targetPoint" />
          </mxGeometry>
        </mxCell>
        <mxCell id="hCge_hbesWVKOA7EXtks-4" value="DB 접속&lt;div&gt;예외 발생&lt;/div&gt;" style="rhombus;whiteSpace=wrap;html=1;" vertex="1" parent="1">
          <mxGeometry x="150" y="220" width="80" height="80" as="geometry" />
        </mxCell>
        <mxCell id="hCge_hbesWVKOA7EXtks-5" value="" style="endArrow=classic;html=1;rounded=0;exitX=0.5;exitY=1;exitDx=0;exitDy=0;entryX=0.5;entryY=0;entryDx=0;entryDy=0;" edge="1" parent="1" source="hCge_hbesWVKOA7EXtks-2" target="hCge_hbesWVKOA7EXtks-4">
          <mxGeometry width="50" height="50" relative="1" as="geometry">
            <mxPoint x="226" y="410" as="sourcePoint" />
            <mxPoint x="276" y="360" as="targetPoint" />
          </mxGeometry>
        </mxCell>
        <mxCell id="hCge_hbesWVKOA7EXtks-8" value="예외 메세지 출력" style="shape=document;whiteSpace=wrap;html=1;boundedLbl=1;" vertex="1" parent="1">
          <mxGeometry x="370" y="930" width="120" height="80" as="geometry" />
        </mxCell>
        <mxCell id="hCge_hbesWVKOA7EXtks-10" value="리스트 페이지&lt;div&gt;종료&lt;/div&gt;" style="strokeWidth=2;html=1;shape=mxgraph.flowchart.terminator;whiteSpace=wrap;" vertex="1" parent="1">
          <mxGeometry x="140" y="1090" width="100" height="60" as="geometry" />
        </mxCell>
        <mxCell id="hCge_hbesWVKOA7EXtks-11" value="" style="endArrow=classic;html=1;rounded=0;entryX=1;entryY=0.5;entryDx=0;entryDy=0;entryPerimeter=0;exitX=0.51;exitY=0.846;exitDx=0;exitDy=0;exitPerimeter=0;" edge="1" parent="1" source="hCge_hbesWVKOA7EXtks-8" target="hCge_hbesWVKOA7EXtks-10">
          <mxGeometry width="50" height="50" relative="1" as="geometry">
            <mxPoint x="430" y="364" as="sourcePoint" />
            <mxPoint x="390" y="470" as="targetPoint" />
            <Array as="points">
              <mxPoint x="430" y="1120" />
            </Array>
          </mxGeometry>
        </mxCell>
        <mxCell id="hCge_hbesWVKOA7EXtks-12" value="&lt;div&gt;page 획득&lt;/div&gt;" style="shape=parallelogram;perimeter=parallelogramPerimeter;whiteSpace=wrap;html=1;fixedSize=1;" vertex="1" parent="1">
          <mxGeometry x="50" y="410" width="120" height="60" as="geometry" />
        </mxCell>
        <mxCell id="hCge_hbesWVKOA7EXtks-15" value="&lt;font style=&quot;font-size: 8px;&quot;&gt;page 파라미터 존재&lt;/font&gt;" style="rhombus;whiteSpace=wrap;html=1;" vertex="1" parent="1">
          <mxGeometry x="150" y="320" width="80" height="80" as="geometry" />
        </mxCell>
        <mxCell id="hCge_hbesWVKOA7EXtks-18" value="&lt;div&gt;1 획득&lt;/div&gt;" style="shape=parallelogram;perimeter=parallelogramPerimeter;whiteSpace=wrap;html=1;fixedSize=1;" vertex="1" parent="1">
          <mxGeometry x="200" y="410" width="120" height="60" as="geometry" />
        </mxCell>
        <mxCell id="hCge_hbesWVKOA7EXtks-20" value="" style="endArrow=classic;html=1;rounded=0;entryX=0.5;entryY=0;entryDx=0;entryDy=0;exitX=0;exitY=0.5;exitDx=0;exitDy=0;" edge="1" parent="1" source="hCge_hbesWVKOA7EXtks-15" target="hCge_hbesWVKOA7EXtks-12">
          <mxGeometry relative="1" as="geometry">
            <mxPoint x="40" y="380" as="sourcePoint" />
            <mxPoint x="140" y="380" as="targetPoint" />
            <Array as="points">
              <mxPoint x="110" y="360" />
            </Array>
          </mxGeometry>
        </mxCell>
        <mxCell id="hCge_hbesWVKOA7EXtks-22" value="YES" style="edgeLabel;html=1;align=center;verticalAlign=middle;resizable=0;points=[];" vertex="1" connectable="0" parent="hCge_hbesWVKOA7EXtks-20">
          <mxGeometry x="0.0133" relative="1" as="geometry">
            <mxPoint as="offset" />
          </mxGeometry>
        </mxCell>
        <mxCell id="hCge_hbesWVKOA7EXtks-27" value="" style="endArrow=classic;html=1;rounded=0;entryX=0.587;entryY=0.005;entryDx=0;entryDy=0;exitX=1;exitY=0.5;exitDx=0;exitDy=0;entryPerimeter=0;" edge="1" parent="1" source="hCge_hbesWVKOA7EXtks-15" target="hCge_hbesWVKOA7EXtks-18">
          <mxGeometry relative="1" as="geometry">
            <mxPoint x="304" y="360" as="sourcePoint" />
            <mxPoint x="264" y="430" as="targetPoint" />
            <Array as="points">
              <mxPoint x="270" y="360" />
            </Array>
          </mxGeometry>
        </mxCell>
        <mxCell id="hCge_hbesWVKOA7EXtks-28" value="NO" style="edgeLabel;html=1;align=center;verticalAlign=middle;resizable=0;points=[];" vertex="1" connectable="0" parent="hCge_hbesWVKOA7EXtks-27">
          <mxGeometry x="0.0133" relative="1" as="geometry">
            <mxPoint as="offset" />
          </mxGeometry>
        </mxCell>
        <mxCell id="hCge_hbesWVKOA7EXtks-29" value="" style="endArrow=classic;html=1;rounded=0;entryX=0.5;entryY=0;entryDx=0;entryDy=0;exitX=1;exitY=0.5;exitDx=0;exitDy=0;" edge="1" parent="1" source="hCge_hbesWVKOA7EXtks-4" target="hCge_hbesWVKOA7EXtks-8">
          <mxGeometry relative="1" as="geometry">
            <mxPoint x="420" y="170" as="sourcePoint" />
            <mxPoint x="380" y="240" as="targetPoint" />
            <Array as="points">
              <mxPoint x="430" y="260" />
            </Array>
          </mxGeometry>
        </mxCell>
        <mxCell id="hCge_hbesWVKOA7EXtks-30" value="YES" style="edgeLabel;html=1;align=center;verticalAlign=middle;resizable=0;points=[];" vertex="1" connectable="0" parent="hCge_hbesWVKOA7EXtks-29">
          <mxGeometry x="0.0133" relative="1" as="geometry">
            <mxPoint as="offset" />
          </mxGeometry>
        </mxCell>
        <mxCell id="hCge_hbesWVKOA7EXtks-31" value="" style="endArrow=classic;html=1;rounded=0;entryX=0.5;entryY=0;entryDx=0;entryDy=0;exitX=0.5;exitY=1;exitDx=0;exitDy=0;" edge="1" parent="1" source="hCge_hbesWVKOA7EXtks-4" target="hCge_hbesWVKOA7EXtks-15">
          <mxGeometry relative="1" as="geometry">
            <mxPoint x="206" y="280" as="sourcePoint" />
            <mxPoint x="240" y="350" as="targetPoint" />
            <Array as="points" />
          </mxGeometry>
        </mxCell>
        <mxCell id="hCge_hbesWVKOA7EXtks-32" value="&lt;font style=&quot;font-size: 9px;&quot;&gt;NO&lt;/font&gt;" style="edgeLabel;html=1;align=center;verticalAlign=middle;resizable=0;points=[];" vertex="1" connectable="0" parent="hCge_hbesWVKOA7EXtks-31">
          <mxGeometry x="0.0133" relative="1" as="geometry">
            <mxPoint as="offset" />
          </mxGeometry>
        </mxCell>
        <mxCell id="hCge_hbesWVKOA7EXtks-33" value="DB에서 게시글 수&lt;div&gt;획득&lt;/div&gt;" style="rounded=0;whiteSpace=wrap;html=1;" vertex="1" parent="1">
          <mxGeometry x="130" y="520" width="120" height="60" as="geometry" />
        </mxCell>
        <mxCell id="hCge_hbesWVKOA7EXtks-34" value="" style="endArrow=classic;html=1;rounded=0;exitX=0.5;exitY=1;exitDx=0;exitDy=0;entryX=0.5;entryY=0;entryDx=0;entryDy=0;" edge="1" parent="1" source="hCge_hbesWVKOA7EXtks-12" target="hCge_hbesWVKOA7EXtks-33">
          <mxGeometry width="50" height="50" relative="1" as="geometry">
            <mxPoint x="180" y="520" as="sourcePoint" />
            <mxPoint x="230" y="470" as="targetPoint" />
            <Array as="points">
              <mxPoint x="110" y="500" />
              <mxPoint x="190" y="500" />
            </Array>
          </mxGeometry>
        </mxCell>
        <mxCell id="hCge_hbesWVKOA7EXtks-35" value="" style="endArrow=classic;html=1;rounded=0;entryX=0.5;entryY=0;entryDx=0;entryDy=0;exitX=0.58;exitY=1.001;exitDx=0;exitDy=0;exitPerimeter=0;" edge="1" parent="1" source="hCge_hbesWVKOA7EXtks-18" target="hCge_hbesWVKOA7EXtks-33">
          <mxGeometry width="50" height="50" relative="1" as="geometry">
            <mxPoint x="268" y="470" as="sourcePoint" />
            <mxPoint x="260" y="490" as="targetPoint" />
            <Array as="points">
              <mxPoint x="270" y="500" />
              <mxPoint x="190" y="500" />
            </Array>
          </mxGeometry>
        </mxCell>
        <mxCell id="hCge_hbesWVKOA7EXtks-36" value="페이지 관련 설정&lt;div&gt;셋팅&lt;/div&gt;" style="rounded=0;whiteSpace=wrap;html=1;" vertex="1" parent="1">
          <mxGeometry x="130" y="710" width="120" height="60" as="geometry" />
        </mxCell>
        <mxCell id="hCge_hbesWVKOA7EXtks-37" value="" style="endArrow=classic;html=1;rounded=0;exitX=0.5;exitY=1;exitDx=0;exitDy=0;entryX=0.5;entryY=0;entryDx=0;entryDy=0;" edge="1" parent="1" source="hCge_hbesWVKOA7EXtks-33" target="hCge_hbesWVKOA7EXtks-44">
          <mxGeometry width="50" height="50" relative="1" as="geometry">
            <mxPoint x="290" y="680" as="sourcePoint" />
            <mxPoint x="340" y="630" as="targetPoint" />
          </mxGeometry>
        </mxCell>
        <mxCell id="hCge_hbesWVKOA7EXtks-42" value="" style="edgeStyle=orthogonalEdgeStyle;rounded=0;orthogonalLoop=1;jettySize=auto;html=1;exitX=0.5;exitY=1;exitDx=0;exitDy=0;" edge="1" parent="1" source="hCge_hbesWVKOA7EXtks-49" target="hCge_hbesWVKOA7EXtks-40">
          <mxGeometry relative="1" as="geometry" />
        </mxCell>
        <mxCell id="hCge_hbesWVKOA7EXtks-38" value="DB에서 게시글 조회" style="rounded=0;whiteSpace=wrap;html=1;" vertex="1" parent="1">
          <mxGeometry x="130" y="790" width="120" height="60" as="geometry" />
        </mxCell>
        <mxCell id="hCge_hbesWVKOA7EXtks-39" value="" style="endArrow=classic;html=1;rounded=0;exitX=0.5;exitY=1;exitDx=0;exitDy=0;" edge="1" parent="1">
          <mxGeometry width="50" height="50" relative="1" as="geometry">
            <mxPoint x="189.81" y="770" as="sourcePoint" />
            <mxPoint x="189.81" y="790" as="targetPoint" />
          </mxGeometry>
        </mxCell>
        <mxCell id="hCge_hbesWVKOA7EXtks-40" value="화면에 출력" style="shape=document;whiteSpace=wrap;html=1;boundedLbl=1;" vertex="1" parent="1">
          <mxGeometry x="130" y="990" width="120" height="80" as="geometry" />
        </mxCell>
        <mxCell id="hCge_hbesWVKOA7EXtks-41" value="" style="endArrow=classic;html=1;rounded=0;exitX=0.5;exitY=1;exitDx=0;exitDy=0;" edge="1" parent="1">
          <mxGeometry width="50" height="50" relative="1" as="geometry">
            <mxPoint x="189.81" y="850" as="sourcePoint" />
            <mxPoint x="189.81" y="870" as="targetPoint" />
          </mxGeometry>
        </mxCell>
        <mxCell id="hCge_hbesWVKOA7EXtks-43" value="" style="endArrow=classic;html=1;rounded=0;exitX=0.5;exitY=0.85;exitDx=0;exitDy=0;entryX=0.5;entryY=0;entryDx=0;entryDy=0;entryPerimeter=0;exitPerimeter=0;" edge="1" parent="1" source="hCge_hbesWVKOA7EXtks-40" target="hCge_hbesWVKOA7EXtks-10">
          <mxGeometry width="50" height="50" relative="1" as="geometry">
            <mxPoint x="189.83999999999997" y="1040" as="sourcePoint" />
            <mxPoint x="189.83999999999997" y="1060" as="targetPoint" />
          </mxGeometry>
        </mxCell>
        <mxCell id="hCge_hbesWVKOA7EXtks-44" value="&lt;font style=&quot;font-size: 11px;&quot;&gt;게시글 획득&lt;/font&gt;&lt;div style=&quot;font-size: 11px;&quot;&gt;&lt;font style=&quot;font-size: 11px;&quot;&gt;예외 발생&lt;/font&gt;&lt;/div&gt;" style="rhombus;whiteSpace=wrap;html=1;" vertex="1" parent="1">
          <mxGeometry x="150" y="600" width="80" height="80" as="geometry" />
        </mxCell>
        <mxCell id="hCge_hbesWVKOA7EXtks-45" value="" style="endArrow=classic;html=1;rounded=0;exitX=1;exitY=0.5;exitDx=0;exitDy=0;" edge="1" parent="1" source="hCge_hbesWVKOA7EXtks-44">
          <mxGeometry relative="1" as="geometry">
            <mxPoint x="360" y="580" as="sourcePoint" />
            <mxPoint x="430" y="710" as="targetPoint" />
            <Array as="points">
              <mxPoint x="430" y="640" />
            </Array>
          </mxGeometry>
        </mxCell>
        <mxCell id="hCge_hbesWVKOA7EXtks-46" value="YES" style="edgeLabel;html=1;align=center;verticalAlign=middle;resizable=0;points=[];" vertex="1" connectable="0" parent="hCge_hbesWVKOA7EXtks-45">
          <mxGeometry x="0.0133" relative="1" as="geometry">
            <mxPoint as="offset" />
          </mxGeometry>
        </mxCell>
        <mxCell id="hCge_hbesWVKOA7EXtks-47" value="" style="endArrow=classic;html=1;rounded=0;entryX=0.5;entryY=0;entryDx=0;entryDy=0;exitX=0.5;exitY=1;exitDx=0;exitDy=0;" edge="1" parent="1" source="hCge_hbesWVKOA7EXtks-44" target="hCge_hbesWVKOA7EXtks-36">
          <mxGeometry relative="1" as="geometry">
            <mxPoint x="250" y="690" as="sourcePoint" />
            <mxPoint x="290" y="740" as="targetPoint" />
            <Array as="points" />
          </mxGeometry>
        </mxCell>
        <mxCell id="hCge_hbesWVKOA7EXtks-48" value="NO" style="edgeLabel;html=1;align=center;verticalAlign=middle;resizable=0;points=[];" vertex="1" connectable="0" parent="hCge_hbesWVKOA7EXtks-47">
          <mxGeometry x="0.0133" relative="1" as="geometry">
            <mxPoint as="offset" />
          </mxGeometry>
        </mxCell>
        <mxCell id="hCge_hbesWVKOA7EXtks-49" value="&lt;font style=&quot;font-size: 11px;&quot;&gt;게시글 획득&lt;/font&gt;&lt;div style=&quot;font-size: 11px;&quot;&gt;&lt;font style=&quot;font-size: 11px;&quot;&gt;예외 발생&lt;/font&gt;&lt;/div&gt;" style="rhombus;whiteSpace=wrap;html=1;" vertex="1" parent="1">
          <mxGeometry x="150" y="870" width="80" height="80" as="geometry" />
        </mxCell>
        <mxCell id="hCge_hbesWVKOA7EXtks-50" value="" style="endArrow=classic;html=1;rounded=0;exitX=1;exitY=0.5;exitDx=0;exitDy=0;entryX=0.5;entryY=0;entryDx=0;entryDy=0;" edge="1" parent="1" source="hCge_hbesWVKOA7EXtks-49" target="hCge_hbesWVKOA7EXtks-8">
          <mxGeometry relative="1" as="geometry">
            <mxPoint x="360" y="841" as="sourcePoint" />
            <mxPoint x="430" y="971" as="targetPoint" />
            <Array as="points">
              <mxPoint x="430" y="910" />
            </Array>
          </mxGeometry>
        </mxCell>
        <mxCell id="hCge_hbesWVKOA7EXtks-51" value="YES" style="edgeLabel;html=1;align=center;verticalAlign=middle;resizable=0;points=[];" vertex="1" connectable="0" parent="hCge_hbesWVKOA7EXtks-50">
          <mxGeometry x="0.0133" relative="1" as="geometry">
            <mxPoint as="offset" />
          </mxGeometry>
        </mxCell>
        <mxCell id="hCge_hbesWVKOA7EXtks-52" value="NO" style="edgeLabel;html=1;align=center;verticalAlign=middle;resizable=0;points=[];" vertex="1" connectable="0" parent="1">
          <mxGeometry x="190" y="956.1724137931035" as="geometry" />
        </mxCell>
      </root>
    </mxGraphModel>
  </diagram>
</mxfile>
